<?xml version="1.0" encoding="UTF-8" standalone="no"?>
<!-- Created with Inkscape (http://www.inkscape.org/) -->

<svg
   xmlns:dc="http://purl.org/dc/elements/1.1/"
   xmlns:cc="http://creativecommons.org/ns#"
   xmlns:rdf="http://www.w3.org/1999/02/22-rdf-syntax-ns#"
   xmlns:svg="http://www.w3.org/2000/svg"
   xmlns="http://www.w3.org/2000/svg"
   xmlns:sodipodi="http://sodipodi.sourceforge.net/DTD/sodipodi-0.dtd"
   xmlns:inkscape="http://www.inkscape.org/namespaces/inkscape"
   width="64px"
   height="64px"
   id="svg9321"
   version="1.1"
   inkscape:version="0.48.4 r9939"
   sodipodi:docname="blast-shield.svg">
  <defs
     id="defs9323" />
  <sodipodi:namedview
     id="base"
     pagecolor="#878787"
     bordercolor="#666666"
     borderopacity="1.0"
     inkscape:pageopacity="0.18431373"
     inkscape:pageshadow="2"
     inkscape:zoom="5.7197829"
     inkscape:cx="46.973147"
     inkscape:cy="14.562051"
     inkscape:current-layer="layer1"
     showgrid="true"
     inkscape:document-units="px"
     inkscape:grid-bbox="true"
     inkscape:snap-global="true"
     inkscape:window-width="1918"
     inkscape:window-height="1059"
     inkscape:window-x="0"
     inkscape:window-y="19"
     inkscape:window-maximized="0">
    <inkscape:grid
       type="xygrid"
       id="grid10233"
       empspacing="5"
       visible="true"
       enabled="true"
       snapvisiblegridlinesonly="true" />
  </sodipodi:namedview>
  <metadata
     id="metadata9326">
    <rdf:RDF>
      <cc:Work
         rdf:about="">
        <dc:format>image/svg+xml</dc:format>
        <dc:type
           rdf:resource="http://purl.org/dc/dcmitype/StillImage" />
        <dc:title></dc:title>
      </cc:Work>
    </rdf:RDF>
  </metadata>
  <g
     id="layer1"
     inkscape:label="Layer 1"
     inkscape:groupmode="layer">
    <g
       transform="matrix(0.234375,0,0,0.234375,7.625291,-17.102387)"
       id="g10378">
      <use
         y="0"
         x="0"
         width="744.09399"
         height="1052.3621"
         transform="translate(360,144)"
         id="use10380" />
    </g>
    <g
       id="g15651">
      <path
         id="path15499"
         d="M -0.00577646,0.00577477 H 63.994224 V 64.005775 H -0.00577646 z"
         inkscape:connector-curvature="0" />
      <g
         id="g15645">
        <path
           id="path15503"
           d="m 7.5437789,4.4512672 c 0,25.0604518 4.6578951,43.6006908 24.6418271,55.1385528 19.512746,-11.26571 24.707237,-30.008954 24.707237,-55.1385528 -16.079187,2.8736028 -32.311854,3.216071 -49.3490641,0 z"
           inkscape:connector-curvature="0"
           style="fill-rule:evenodd;stroke:#ffffff;stroke-width:2.33607244" />
        <g
           id="g15641"
           transform="matrix(-0.28164805,0.95951778,-0.95951778,-0.28164805,65.843551,4.1115515)">
          <path
             style="fill:#ffffff"
             id="path15639"
             d="m 37.609575,4.294776 c -2.714608,8.799236 -4.219966,13.409344 -7.704938,13.903655 -1.651799,0.234431 -3.812356,-1.705068 -6.222225,-4.45979 1.371861,2.722804 1.88666,4.901046 0.961661,5.440645 -1.399897,0.816519 -4.53139,-0.615514 -9.472764,-2.734663 2.807128,1.84676 7.420041,4.449867 6.860384,5.199313 -0.716017,0.958641 -6.849171,-0.417532 -11.605934,-1.167409 7.912843,2.252647 12.203981,4.92865 12.203981,7.3066 0,1.633898 -4.331683,5.514404 -6.37535,7.443119 1.734614,-1.010835 5.741071,-2.167459 6.808841,-0.265271 1.18272,2.107072 -0.583381,5.46286 -2.527408,11.353818 2.783836,-4.096175 6.506258,-9.588794 8.046771,-9.443866 1.086103,0.101363 -0.426158,5.38263 -0.928448,8.754161 1.910814,-7.101932 4.127014,-11.750861 7.995227,-11.619088 2.630928,0.08842 5.145612,2.728194 7.892138,4.615716 -1.435483,-1.757043 -4.07741,-4.255983 -3.507617,-4.722042 0.789128,-0.645277 5.008879,1.11263 8.356254,2.281547 -2.215551,-1.59292 -6.087647,-3.891504 -5.467819,-4.509823 0.923705,-0.921116 6.423874,0.118608 10.419547,0.63665 -7.781718,-2.725175 -12.136045,-3.918679 -13.065788,-6.964767 -0.468429,-1.53469 0.962526,-3.573828 3.626234,-6.033731 -2.782758,1.524985 -4.841305,2.544445 -5.652645,1.099041 C 37.223098,18.579731 39.25857,14.565726 41.374914,9.2288176 39.500549,12.10841 37.070837,16.632899 36.474732,16.073027 35.678919,15.325954 36.9712,9.1915075 37.609575,4.294776 z"
             inkscape:connector-curvature="0" />
          <path
             inkscape:connector-curvature="0"
             d="m 34.75081,14.784685 c -1.359254,4.40594 -2.113015,6.714306 -3.858005,6.961817 -0.827086,0.117384 -1.908917,-0.853759 -3.115583,-2.2331 0.686916,1.363359 0.944685,2.454045 0.481522,2.724232 -0.700955,0.408846 -2.268951,-0.308199 -4.743189,-1.369296 1.405581,0.924706 3.715352,2.22813 3.435122,2.603392 -0.358523,0.480009 -3.429507,-0.209066 -5.811306,-0.584543 3.962107,1.127942 6.110758,2.467866 6.110758,3.65855 0,0.818122 -2.168953,2.761163 -3.192255,3.726907 0.868553,-0.506144 2.87466,-1.085287 3.409312,-0.132826 0.59221,1.05505 -0.292109,2.735355 -1.265519,5.685066 1.393918,-2.05103 3.257804,-4.801286 4.029167,-4.728718 0.543832,0.05075 -0.213386,2.695182 -0.464891,4.38337 0.95678,-3.556068 2.066472,-5.883873 4.003358,-5.817892 1.317354,0.04428 2.576503,1.366057 3.951739,2.311175 -0.718773,-0.879785 -2.041634,-2.13105 -1.756328,-2.364414 0.395131,-0.323102 2.508038,0.557114 4.184131,1.142413 -1.109368,-0.797605 -3.048198,-1.948549 -2.737838,-2.258152 0.462515,-0.46122 3.216552,0.05939 5.217259,0.318782 -3.89645,-1.364546 -6.076742,-1.962155 -6.542281,-3.487387 -0.234552,-0.768448 0.481954,-1.789482 1.815722,-3.021202 -1.393378,0.763589 -2.424131,1.274051 -2.830384,0.550311 -0.514027,-0.915744 0.505172,-2.925631 1.564864,-5.59792 -0.938529,1.441866 -2.155131,3.707361 -2.453611,3.427023 -0.398479,-0.374073 0.24859,-3.445704 0.568236,-5.897588 z"
             id="path15619" />
        </g>
      </g>
    </g>
  </g>
</svg>
