<?xml version="1.0" encoding="UTF-8" standalone="no"?>
<!-- Created with Inkscape (http://www.inkscape.org/) -->

<svg
   xmlns:dc="http://purl.org/dc/elements/1.1/"
   xmlns:cc="http://creativecommons.org/ns#"
   xmlns:rdf="http://www.w3.org/1999/02/22-rdf-syntax-ns#"
   xmlns:svg="http://www.w3.org/2000/svg"
   xmlns="http://www.w3.org/2000/svg"
   xmlns:sodipodi="http://sodipodi.sourceforge.net/DTD/sodipodi-0.dtd"
   xmlns:inkscape="http://www.inkscape.org/namespaces/inkscape"
   width="64px"
   height="64px"
   id="svg9321"
   version="1.1"
   inkscape:version="0.48.4 r9939"
   sodipodi:docname="mental-accuracy.svg">
  <defs
     id="defs9323" />
  <sodipodi:namedview
     id="base"
     pagecolor="#878787"
     bordercolor="#666666"
     borderopacity="1.0"
     inkscape:pageopacity="0.18431373"
     inkscape:pageshadow="2"
     inkscape:zoom="3.4609375"
     inkscape:cx="-76.534877"
     inkscape:cy="26.192168"
     inkscape:current-layer="layer1"
     showgrid="true"
     inkscape:document-units="px"
     inkscape:grid-bbox="true"
     inkscape:snap-global="true"
     inkscape:window-width="1918"
     inkscape:window-height="1059"
     inkscape:window-x="0"
     inkscape:window-y="19"
     inkscape:window-maximized="0">
    <inkscape:grid
       type="xygrid"
       id="grid10233"
       empspacing="5"
       visible="true"
       enabled="true"
       snapvisiblegridlinesonly="true" />
  </sodipodi:namedview>
  <metadata
     id="metadata9326">
    <rdf:RDF>
      <cc:Work
         rdf:about="">
        <dc:format>image/svg+xml</dc:format>
        <dc:type
           rdf:resource="http://purl.org/dc/dcmitype/StillImage" />
        <dc:title></dc:title>
      </cc:Work>
    </rdf:RDF>
  </metadata>
  <g
     id="layer1"
     inkscape:label="Layer 1"
     inkscape:groupmode="layer">
    <g
       transform="matrix(0.234375,0,0,0.234375,7.625291,-17.102387)"
       id="g10378">
      <use
         y="0"
         x="0"
         width="744.09399"
         height="1052.3621"
         transform="translate(360,144)"
         id="use10380" />
    </g>
    <g
       id="g25326">
      <path
         id="path15522"
         d="M 0.0740039,0.23326943 H 64.074004 V 64.233269 H 0.0740039 z"
         inkscape:connector-curvature="0" />
      <g
         id="g25307">
        <path
           id="path15534"
           d="m 48.267356,8.5981529 c -3.448978,0.446657 -6.141535,4.1843731 -6.141535,8.6953291 2.4e-5,2.498429 0.859208,4.729612 2.182593,6.31931 -7.172677,1.344409 -7.715113,13.386162 -7.71488,21.839708 h 4.9742 l 1.319647,17.643655 H 55.525767 L 56.693102,45.4525 h 4.720268 c 0,-8.47714 0.170767,-20.730541 -7.664186,-21.94086 1.266384,-1.582456 2.080973,-3.781401 2.080973,-6.218158 -7e-5,-4.811842 -3.075206,-8.6953291 -6.852168,-8.6953291 -0.236177,0 -0.48053,-0.029668 -0.710633,0 z"
           inkscape:connector-curvature="0"
           style="fill:#ffffff;fill-rule:evenodd;stroke:#000000;stroke-width:2.33607244" />
        <g
           id="g8742"
           transform="matrix(-0.66209637,0.15604852,-0.72650307,-0.14221435,634.83956,82.785808)">
          <path
             id="path8744"
             d="m 184.5468,664.5475 c -0.2243,5.078 -2.6447,10.6182 -7.1314,15.1052 -4.4607,4.461 -10.0061,6.9273 -15.06,7.1761 6.1185,2.11 13.1905,0.7179 18.072,-4.1639 4.8996,-4.9 6.2629,-11.983 4.1193,-18.1175 z"
             inkscape:connector-curvature="0"
             style="fill:#ffffff" />
          <path
             id="path8746"
             d="m 179.1034,663.3688 c -0.1813,4.1041 -2.1374,8.5817 -5.7636,12.208 -3.6052,3.6054 -8.087,5.5986 -12.1715,5.7997 4.9449,1.7053 10.6605,0.5803 14.6058,-3.3653 3.9599,-3.9601 5.0617,-9.6846 3.3293,-14.6424 z"
             inkscape:connector-curvature="0"
             style="fill:#ffffff" />
          <path
             id="path8748"
             d="m 174.4127,663.2272 c -0.1354,3.0652 -1.5964,6.4093 -4.3046,9.1177 -2.6926,2.6927 -6.0399,4.1814 -9.0904,4.3315 3.6932,1.2737 7.9619,0.4334 10.9085,-2.5133 2.9574,-2.9576 3.7803,-7.2331 2.4865,-10.9359 z"
             inkscape:connector-curvature="0"
             style="fill:#ffffff" />
          <path
             id="path8750"
             d="m 170.2379,662.7486 c -0.0981,2.221 -1.1567,4.6443 -3.1191,6.6068 -1.951,1.9512 -4.3765,3.0299 -6.587,3.1387 2.6761,0.9229 5.7693,0.314 7.9044,-1.8212 2.1351,-2.1352 2.7393,-5.2412 1.8017,-7.9242 z"
             inkscape:connector-curvature="0"
             style="fill:#ffffff" />
        </g>
        <g
           transform="matrix(0.57121753,0,0,0.57659399,-171.44436,-0.41011806)"
           id="g25253">
          <path
             style="fill:#ffffff"
             inkscape:connector-curvature="0"
             d="m 317.3532,13.4035 c -6.9735,0 -12.6441,5.6379 -12.6441,12.6115 0,6.9736 5.6706,12.6443 12.6441,12.6443 6.9735,0 12.6113,-5.6707 12.6113,-12.6443 0,-6.9736 -5.6378,-12.6115 -12.6113,-12.6115 z m 0,3.0872 c 5.2557,-1e-6 9.5241,4.2685 9.5241,9.5243 0,5.2558 -4.2684,9.5243 -9.5241,9.5243 -5.2557,0 -9.5242,-4.2685 -9.5242,-9.5243 0,-5.2558 4.2684,-9.5243 9.5242,-9.5243 z"
             id="path25255" />
          <path
             style="fill:none;stroke:#000000"
             inkscape:connector-curvature="0"
             d="m 303.7929,26.0314 h 27.0876"
             id="path25257" />
          <path
             style="fill:none;stroke:#000000"
             inkscape:connector-curvature="0"
             d="M 317.3368,12.6186 V 39.4443"
             id="path25259" />
          <path
             style="fill:#ffffff"
             inkscape:connector-curvature="0"
             d="m 317.3543,19.1516 c -3.7991,0 -6.8972,3.0632 -6.8972,6.8624 0,3.7992 3.0982,6.8974 6.8972,6.8974 3.799,0 6.8622,-3.0982 6.8623,-6.8974 10e-5,-3.7992 -3.0632,-6.8624 -6.8623,-6.8624 z m 0,1.6806 c 2.8633,1e-6 5.1817,2.3185 5.1817,5.1818 0,2.8633 -2.3184,5.2168 -5.1817,5.2168 -2.8633,0 -5.1817,-2.3535 -5.1817,-5.2168 0,-2.8633 2.3184,-5.1818 5.1817,-5.1818 z"
             id="path25261" />
          <path
             style="fill:none;stroke:#000000"
             inkscape:connector-curvature="0"
             d="m 311.2381,19.9327 12.1972,12.1975"
             id="path25263" />
          <path
             style="fill:none;stroke:#000000"
             inkscape:connector-curvature="0"
             d="M 323.4354,19.9327 311.2382,32.1302"
             id="path25265" />
          <path
             style="fill:#ffffff"
             inkscape:connector-curvature="0"
             d="m 318.4662,20.6116 -2.1781,7e-6 1.0891,4.0884 1.0891,-4.0885 z"
             id="path25267" />
          <path
             style="fill:#ffffff"
             inkscape:connector-curvature="0"
             d="m 318.4662,31.4088 -2.1781,-7e-6 1.0891,-4.0884 1.0891,4.0885 z"
             id="path25269" />
          <path
             style="fill:#ffffff"
             inkscape:connector-curvature="0"
             d="m 322.7757,27.0992 -2e-5,-2.1781 -4.0884,1.0891 4.0885,1.0891 z"
             id="path25271" />
          <path
             style="fill:#ffffff"
             inkscape:connector-curvature="0"
             d="m 311.9785,27.0992 1e-5,-2.1781 4.0884,1.0891 -4.0884,1.0891 z"
             id="path25273" />
        </g>
      </g>
    </g>
  </g>
</svg>
