<?xml version="1.0" encoding="UTF-8" standalone="no"?>
<!-- Created with Inkscape (http://www.inkscape.org/) -->

<svg
   xmlns:dc="http://purl.org/dc/elements/1.1/"
   xmlns:cc="http://creativecommons.org/ns#"
   xmlns:rdf="http://www.w3.org/1999/02/22-rdf-syntax-ns#"
   xmlns:svg="http://www.w3.org/2000/svg"
   xmlns="http://www.w3.org/2000/svg"
   xmlns:sodipodi="http://sodipodi.sourceforge.net/DTD/sodipodi-0.dtd"
   xmlns:inkscape="http://www.inkscape.org/namespaces/inkscape"
   width="64px"
   height="64px"
   id="svg9321"
   version="1.1"
   inkscape:version="0.48.4 r9939"
   sodipodi:docname="smg.svg">
  <defs
     id="defs9323" />
  <sodipodi:namedview
     id="base"
     pagecolor="#878787"
     bordercolor="#666666"
     borderopacity="1.0"
     inkscape:pageopacity="0.18431373"
     inkscape:pageshadow="2"
     inkscape:zoom="2.3975339"
     inkscape:cx="-49.621176"
     inkscape:cy="-9.3770761"
     inkscape:current-layer="layer1"
     showgrid="true"
     inkscape:document-units="px"
     inkscape:grid-bbox="true"
     inkscape:snap-global="true"
     inkscape:window-width="1918"
     inkscape:window-height="1059"
     inkscape:window-x="0"
     inkscape:window-y="19"
     inkscape:window-maximized="0">
    <inkscape:grid
       type="xygrid"
       id="grid10233"
       empspacing="5"
       visible="true"
       enabled="true"
       snapvisiblegridlinesonly="true" />
  </sodipodi:namedview>
  <metadata
     id="metadata9326">
    <rdf:RDF>
      <cc:Work
         rdf:about="">
        <dc:format>image/svg+xml</dc:format>
        <dc:type
           rdf:resource="http://purl.org/dc/dcmitype/StillImage" />
        <dc:title></dc:title>
      </cc:Work>
    </rdf:RDF>
  </metadata>
  <g
     id="layer1"
     inkscape:label="Layer 1"
     inkscape:groupmode="layer">
    <g
       transform="matrix(0.234375,0,0,0.234375,7.625291,-17.102387)"
       id="g10378">
      <use
         y="0"
         x="0"
         width="744.09399"
         height="1052.3621"
         transform="translate(360,144)"
         id="use10380" />
    </g>
    <g
       id="g10824">
      <path
         inkscape:connector-curvature="0"
         d="M -9.0909101e-8,0.18181855 H 64 V 64.181819 H -9.0909101e-8 z"
         id="path9299" />
      <g
         transform="matrix(0.81751641,-0.79953687,0.81751641,0.79953687,-20.14995,32.091652)"
         id="g10771">
        <path
           style="fill:#ffffff"
           inkscape:connector-curvature="0"
           d="m 19.264415,35.658612 7.765142,1.055516 -3.316075,15.362038 -8.746637,-0.584143 z"
           id="path9303" />
        <path
           style="fill:#ffffff"
           inkscape:connector-curvature="0"
           d="m 19,26 0,7 0,4 37.415078,-0.750661 -0.07634,-9.956848 z"
           id="path9305"
           sodipodi:nodetypes="cccccc" />
        <path
           style="fill:none;stroke:#ffffff;stroke-width:1.60715711"
           inkscape:connector-curvature="0"
           d="m 20.865871,42.756824 11.766718,-0.04419 1.357984,-7.594149"
           id="path9307" />
        <path
           style="fill:#ffffff"
           inkscape:connector-curvature="0"
           d="m 27.397359,36.607637 -0.208642,3.543787 1.230799,1.162986 0.07543,-2.894152 2.942298,-1.954116"
           id="path9309" />
        <path
           style="fill:none;stroke:#ffffff;stroke-width:4.88536644"
           inkscape:connector-curvature="0"
           d="m 59.584898,29.12668 0.0033,-1.743201"
           id="path9313" />
        <rect
           style="fill:#ffffff;fill-opacity:1;fill-rule:nonzero;stroke:none"
           id="rect10231"
           width="17.851768"
           height="2.5700076"
           x="1.7700963"
           y="26.006218"
           transform="matrix(0.9999994,-0.00109998,0.01282147,0.9999178,0,0)" />
        <path
           style="fill:none;stroke:#000000;stroke-width:1.57873166"
           inkscape:connector-curvature="0"
           d="M 56.775723,32.541698 14.852967,32.928162"
           id="path9319" />
        <g
           id="g10222"
           transform="matrix(0.36348174,-0.00316034,0.00136509,0.84149932,27.705501,9.9958343)">
          <rect
             y="30.363636"
             x="29.999998"
             height="18.90909"
             width="10.363637"
             id="rect9438"
             style="fill:#ffffff;fill-opacity:1;fill-rule:nonzero;stroke:none" />
          <path
             style="fill:none;stroke:#000000;stroke-width:1.87493181"
             inkscape:connector-curvature="0"
             d="m 31.509823,34.876814 7.816966,0"
             id="path9440" />
          <path
             inkscape:connector-curvature="0"
             id="path9444"
             d="m 29.453864,32.161889 11.546818,0.03986"
             style="fill:none;stroke:#000000;stroke-width:0.5;stroke-linecap:butt;stroke-linejoin:miter;stroke-miterlimit:4;stroke-opacity:1;stroke-dasharray:none" />
          <path
             id="path10214"
             d="m 31.509823,37.876814 7.816966,0"
             inkscape:connector-curvature="0"
             style="fill:none;stroke:#000000;stroke-width:1.87493181" />
          <path
             style="fill:none;stroke:#000000;stroke-width:1.87493181"
             inkscape:connector-curvature="0"
             d="m 31.509823,40.876814 7.816966,0"
             id="path10216" />
          <path
             id="path10218"
             d="m 31.509823,43.876814 7.816966,0"
             inkscape:connector-curvature="0"
             style="fill:none;stroke:#000000;stroke-width:1.87493181" />
          <path
             style="fill:none;stroke:#000000;stroke-width:1.87493181"
             inkscape:connector-curvature="0"
             d="m 31.509823,46.876814 7.816966,0"
             id="path10220" />
        </g>
        <rect
           transform="matrix(0.00226049,0.99999745,-0.99998053,0.00623946,0,0)"
           y="-4.6259212"
           x="26.000153"
           height="2.5698464"
           width="8.6868782"
           id="rect10717"
           style="fill:#ffffff;fill-opacity:1;fill-rule:nonzero;stroke:none" />
        <rect
           style="fill:#ffffff;fill-opacity:1;fill-rule:nonzero;stroke:#ffffff;stroke-width:0.60449862;stroke-miterlimit:4;stroke-opacity:1;stroke-dasharray:none;stroke-dashoffset:0"
           id="rect10731"
           width="2.5574689"
           height="11.336164"
           x="60.24078"
           y="25.26663"
           ry="0.6981048"
           transform="matrix(0.98577609,0.16806397,-0.22651414,0.97400788,0,0)"
           inkscape:transform-center-x="-3.2098821"
           inkscape:transform-center-y="-1.7533788" />
        <path
           style="fill:none;stroke:#000000;stroke-width:1px;stroke-linecap:butt;stroke-linejoin:miter;stroke-opacity:1"
           d="m 54.511505,36.744247 -2.057038,8.292435"
           id="path10733"
           inkscape:connector-curvature="0" />
        <path
           id="path10735"
           d="m 58.195459,34.75876 3.15e-4,-3.364995"
           inkscape:connector-curvature="0"
           style="fill:none;stroke:#ffffff;stroke-width:2.10648799" />
        <path
           style="fill:none;stroke:#ffffff;stroke-width:1px;stroke-linecap:butt;stroke-linejoin:miter;stroke-opacity:1"
           d="m 32,26.385695 c 0,0 1.057191,-2 2,-2 0.942809,0 2,2 2,2"
           id="path10737"
           inkscape:connector-curvature="0"
           sodipodi:nodetypes="csc" />
        <path
           sodipodi:type="arc"
           style="fill:#000000;fill-opacity:1;fill-rule:nonzero;stroke:none"
           id="path10739"
           sodipodi:cx="41"
           sodipodi:cy="28"
           sodipodi:rx="1"
           sodipodi:ry="1"
           d="m 42,28 c 0,0.552285 -0.447715,1 -1,1 -0.552285,0 -1,-0.447715 -1,-1 0,-0.552285 0.447715,-1 1,-1 0.552285,0 1,0.447715 1,1 z"
           transform="matrix(0.71241547,0,0,1.0666094,10.074606,-2.4158886)" />
        <path
           transform="matrix(0.71241547,0,0,1.0666094,10.074606,0.58411136)"
           d="m 42,28 c 0,0.552285 -0.447715,1 -1,1 -0.552285,0 -1,-0.447715 -1,-1 0,-0.552285 0.447715,-1 1,-1 0.552285,0 1,0.447715 1,1 z"
           sodipodi:ry="1"
           sodipodi:rx="1"
           sodipodi:cy="28"
           sodipodi:cx="41"
           id="path10749"
           style="fill:#000000;fill-opacity:1;fill-rule:nonzero;stroke:none"
           sodipodi:type="arc" />
        <path
           transform="matrix(0.71241547,0,0,1.0666094,13.074606,-2.4158886)"
           d="m 42,28 c 0,0.552285 -0.447715,1 -1,1 -0.552285,0 -1,-0.447715 -1,-1 0,-0.552285 0.447715,-1 1,-1 0.552285,0 1,0.447715 1,1 z"
           sodipodi:ry="1"
           sodipodi:rx="1"
           sodipodi:cy="28"
           sodipodi:cx="41"
           id="path10751"
           style="fill:#000000;fill-opacity:1;fill-rule:nonzero;stroke:none"
           sodipodi:type="arc" />
        <path
           sodipodi:type="arc"
           style="fill:#000000;fill-opacity:1;fill-rule:nonzero;stroke:none"
           id="path10753"
           sodipodi:cx="41"
           sodipodi:cy="28"
           sodipodi:rx="1"
           sodipodi:ry="1"
           d="m 42,28 c 0,0.552285 -0.447715,1 -1,1 -0.552285,0 -1,-0.447715 -1,-1 0,-0.552285 0.447715,-1 1,-1 0.552285,0 1,0.447715 1,1 z"
           transform="matrix(0.71241547,0,0,1.0666094,13.074606,0.58411136)" />
        <path
           sodipodi:type="arc"
           style="fill:#000000;fill-opacity:1;fill-rule:nonzero;stroke:none"
           id="path10755"
           sodipodi:cx="41"
           sodipodi:cy="28"
           sodipodi:rx="1"
           sodipodi:ry="1"
           d="m 42,28 c 0,0.552285 -0.447715,1 -1,1 -0.552285,0 -1,-0.447715 -1,-1 0,-0.552285 0.447715,-1 1,-1 0.552285,0 1,0.447715 1,1 z"
           transform="matrix(0.71241547,0,0,1.0666094,16.074606,-2.4158886)" />
        <path
           transform="matrix(0.71241547,0,0,1.0666094,16.074606,0.58411136)"
           d="m 42,28 c 0,0.552285 -0.447715,1 -1,1 -0.552285,0 -1,-0.447715 -1,-1 0,-0.552285 0.447715,-1 1,-1 0.552285,0 1,0.447715 1,1 z"
           sodipodi:ry="1"
           sodipodi:rx="1"
           sodipodi:cy="28"
           sodipodi:cx="41"
           id="path10757"
           style="fill:#000000;fill-opacity:1;fill-rule:nonzero;stroke:none"
           sodipodi:type="arc" />
        <path
           transform="matrix(0.71241547,0,0,1.0666094,19.074606,-2.4158886)"
           d="m 42,28 c 0,0.552285 -0.447715,1 -1,1 -0.552285,0 -1,-0.447715 -1,-1 0,-0.552285 0.447715,-1 1,-1 0.552285,0 1,0.447715 1,1 z"
           sodipodi:ry="1"
           sodipodi:rx="1"
           sodipodi:cy="28"
           sodipodi:cx="41"
           id="path10759"
           style="fill:#000000;fill-opacity:1;fill-rule:nonzero;stroke:none"
           sodipodi:type="arc" />
        <path
           sodipodi:type="arc"
           style="fill:#000000;fill-opacity:1;fill-rule:nonzero;stroke:none"
           id="path10761"
           sodipodi:cx="41"
           sodipodi:cy="28"
           sodipodi:rx="1"
           sodipodi:ry="1"
           d="m 42,28 c 0,0.552285 -0.447715,1 -1,1 -0.552285,0 -1,-0.447715 -1,-1 0,-0.552285 0.447715,-1 1,-1 0.552285,0 1,0.447715 1,1 z"
           transform="matrix(0.71241547,0,0,1.0666094,19.074606,0.58411136)" />
        <path
           sodipodi:type="arc"
           style="fill:#000000;fill-opacity:1;fill-rule:nonzero;stroke:none"
           id="path10763"
           sodipodi:cx="41"
           sodipodi:cy="28"
           sodipodi:rx="1"
           sodipodi:ry="1"
           d="m 42,28 c 0,0.552285 -0.447715,1 -1,1 -0.552285,0 -1,-0.447715 -1,-1 0,-0.552285 0.447715,-1 1,-1 0.552285,0 1,0.447715 1,1 z"
           transform="matrix(0.71241547,0,0,1.0666094,22.074606,-2.4158886)" />
        <path
           transform="matrix(0.71241547,0,0,1.0666094,22.074606,0.58411136)"
           d="m 42,28 c 0,0.552285 -0.447715,1 -1,1 -0.552285,0 -1,-0.447715 -1,-1 0,-0.552285 0.447715,-1 1,-1 0.552285,0 1,0.447715 1,1 z"
           sodipodi:ry="1"
           sodipodi:rx="1"
           sodipodi:cy="28"
           sodipodi:cx="41"
           id="path10765"
           style="fill:#000000;fill-opacity:1;fill-rule:nonzero;stroke:none"
           sodipodi:type="arc" />
        <path
           transform="matrix(0.71241547,0,0,1.0666094,25.074606,-2.4158886)"
           d="m 42,28 c 0,0.552285 -0.447715,1 -1,1 -0.552285,0 -1,-0.447715 -1,-1 0,-0.552285 0.447715,-1 1,-1 0.552285,0 1,0.447715 1,1 z"
           sodipodi:ry="1"
           sodipodi:rx="1"
           sodipodi:cy="28"
           sodipodi:cx="41"
           id="path10767"
           style="fill:#000000;fill-opacity:1;fill-rule:nonzero;stroke:none"
           sodipodi:type="arc" />
        <path
           sodipodi:type="arc"
           style="fill:#000000;fill-opacity:1;fill-rule:nonzero;stroke:none"
           id="path10769"
           sodipodi:cx="41"
           sodipodi:cy="28"
           sodipodi:rx="1"
           sodipodi:ry="1"
           d="m 42,28 c 0,0.552285 -0.447715,1 -1,1 -0.552285,0 -1,-0.447715 -1,-1 0,-0.552285 0.447715,-1 1,-1 0.552285,0 1,0.447715 1,1 z"
           transform="matrix(0.71241547,0,0,1.0666094,25.074606,0.58411136)" />
      </g>
    </g>
  </g>
</svg>
