<?xml version="1.0" encoding="UTF-8" standalone="no"?>
<!-- Created with Inkscape (http://www.inkscape.org/) -->

<svg
   xmlns:dc="http://purl.org/dc/elements/1.1/"
   xmlns:cc="http://creativecommons.org/ns#"
   xmlns:rdf="http://www.w3.org/1999/02/22-rdf-syntax-ns#"
   xmlns:svg="http://www.w3.org/2000/svg"
   xmlns="http://www.w3.org/2000/svg"
   xmlns:sodipodi="http://sodipodi.sourceforge.net/DTD/sodipodi-0.dtd"
   xmlns:inkscape="http://www.inkscape.org/namespaces/inkscape"
   width="64px"
   height="64px"
   id="svg9321"
   version="1.1"
   inkscape:version="0.48.4 r9939"
   sodipodi:docname="torch-staff.svg">
  <defs
     id="defs9323" />
  <sodipodi:namedview
     id="base"
     pagecolor="#878787"
     bordercolor="#666666"
     borderopacity="1.0"
     inkscape:pageopacity="0.18431373"
     inkscape:pageshadow="2"
     inkscape:zoom="11"
     inkscape:cx="49.406419"
     inkscape:cy="28.181108"
     inkscape:current-layer="layer1"
     showgrid="true"
     inkscape:document-units="px"
     inkscape:grid-bbox="true"
     inkscape:snap-global="true"
     inkscape:window-width="1918"
     inkscape:window-height="1059"
     inkscape:window-x="0"
     inkscape:window-y="19"
     inkscape:window-maximized="0">
    <inkscape:grid
       type="xygrid"
       id="grid10233"
       empspacing="5"
       visible="true"
       enabled="true"
       snapvisiblegridlinesonly="true" />
  </sodipodi:namedview>
  <metadata
     id="metadata9326">
    <rdf:RDF>
      <cc:Work
         rdf:about="">
        <dc:format>image/svg+xml</dc:format>
        <dc:type
           rdf:resource="http://purl.org/dc/dcmitype/StillImage" />
        <dc:title />
      </cc:Work>
    </rdf:RDF>
  </metadata>
  <g
     id="layer1"
     inkscape:label="Layer 1"
     inkscape:groupmode="layer">
    <g
       transform="matrix(0.234375,0,0,0.234375,7.625291,-17.102387)"
       id="g10378">
      <use
         y="0"
         x="0"
         width="744.09399"
         height="1052.3621"
         transform="translate(360,144)"
         id="use10380" />
    </g>
    <path
       inkscape:connector-curvature="0"
       d="M 0,0 H 64 V 64 H 0 z"
       id="path3263" />
    <g
       id="g13797"
       transform="matrix(0.87704533,0,0,0.88671516,4.8245733,2.6393111)">
      <g
         id="g13778">
        <path
           d="m 32.91144,30.062632 c -0.01337,0.02445 -0.02533,0.05256 -0.03865,0.07702 0.02319,-0.01377 0.05138,-0.02332 0.07456,-0.03714 l -0.03591,-0.03987 z"
           id="path13259"
           inkscape:connector-curvature="0" />
        <rect
           style="fill:#ffffff;fill-opacity:1;fill-rule:nonzero;stroke:#ffffff;stroke-width:0.75439698;stroke-miterlimit:4;stroke-opacity:1;stroke-dasharray:none;stroke-dashoffset:0"
           id="rect13265"
           width="36.423397"
           height="1.5089866"
           x="-2.4664235"
           y="44.60252"
           ry="0.28255296"
           transform="matrix(0.69024293,-0.72357771,0.67616478,0.73675043,0,0)" />
        <path
           style="fill:#ffffff"
           inkscape:connector-curvature="0"
           d="m 44.346318,14.147552 c -1.57852,4.598671 -4.632927,7.137819 -8.219644,8.962871 0.275848,2.717006 1.999193,4.121661 4.322965,4.227627 1.616037,-4.481955 4.375946,-7.265195 8.22001,-8.962788 -0.521519,-1.953726 -2.141324,-3.764052 -4.332283,-4.262535 z"
           id="path13535" />
        <path
           style="fill:#ffffff"
           id="path13666"
           d="M 51.970809,8.7821503 54.17794,11.413014 56.321421,9.9428261 53.604,6.703701 z"
           inkscape:connector-curvature="0" />
        <path
           style="fill:#ffffff"
           id="path13668"
           d="M 61.933256,0.20996833 C 61.623238,1.9480048 55.038062,6.348032 57.423827,1.1254311 53.016201,3.6880015 51.541437,2.4023588 53.14563,0.74480273 50.154007,0.86825383 49.659096,5.7875743 50.045178,7.1909891 l 0.93724,1.1171746 c -0.0936,-1.8027688 0.05779,-2.7964975 1.116049,-4.1116693 0.735383,1.1989455 0.983419,1.9581962 2.833552,0.4390993 -0.551612,3.0816643 2.963878,1.1188412 4.831289,0.6919758 -0.84182,0.7999976 -1.941477,1.8642764 -2.161195,3.1741072 -0.07327,0.436841 0.325906,1.038546 0.751969,1.48841 -0.516559,0.1224243 -2.269212,0.4853923 -2.123184,1.4862373 0.146031,1.000845 0.653922,0.693778 0.18036,0.883676 -0.678409,0.15098 -1.158451,0.307838 -2.158111,-0.153172 l 1.014117,1.208811 c 1.537229,0.873133 4.0251,0.473635 4.569782,-0.799478 -0.804902,-0.08077 -1.475562,-0.288872 -1.790898,-0.688601 2.406704,-0.450583 3.668621,-2.2185413 4.731998,-4.2703596 -1.848267,1.0699583 -2.310637,0.9977323 -3.064337,0.9031833 1.947151,-0.804121 2.635799,-6.253377 2.219451,-8.35040807 z"
           inkscape:connector-curvature="0" />
      </g>
      <g
         transform="matrix(-1,0,0,-1,61.970404,66.223496)"
         id="g13785">
        <path
           inkscape:connector-curvature="0"
           id="path13787"
           d="m 32.91144,30.062632 c -0.01337,0.02445 -0.02533,0.05256 -0.03865,0.07702 0.02319,-0.01377 0.05138,-0.02332 0.07456,-0.03714 l -0.03591,-0.03987 z" />
        <rect
           transform="matrix(0.69024293,-0.72357771,0.67616478,0.73675043,0,0)"
           ry="0.28255296"
           y="44.60252"
           x="-2.4664235"
           height="1.5089866"
           width="36.423397"
           id="rect13789"
           style="fill:#ffffff;fill-opacity:1;fill-rule:nonzero;stroke:#ffffff;stroke-width:0.75439698;stroke-miterlimit:4;stroke-opacity:1;stroke-dasharray:none;stroke-dashoffset:0" />
        <path
           id="path13791"
           d="m 44.346318,14.147552 c -1.57852,4.598671 -4.632927,7.137819 -8.219644,8.962871 0.275848,2.717006 1.999193,4.121661 4.322965,4.227627 1.616037,-4.481955 4.375946,-7.265195 8.22001,-8.962788 -0.521519,-1.953726 -2.141324,-3.764052 -4.332283,-4.262535 z"
           inkscape:connector-curvature="0"
           style="fill:#ffffff" />
        <path
           inkscape:connector-curvature="0"
           d="M 51.970809,8.7821503 54.17794,11.413014 56.321421,9.9428261 53.604,6.703701 z"
           id="path13793"
           style="fill:#ffffff" />
        <path
           inkscape:connector-curvature="0"
           d="M 61.933256,0.20996833 C 61.623238,1.9480048 55.038062,6.348032 57.423827,1.1254311 53.016201,3.6880015 51.541437,2.4023588 53.14563,0.74480273 50.154007,0.86825383 49.659096,5.7875743 50.045178,7.1909891 l 0.93724,1.1171746 c -0.0936,-1.8027688 0.05779,-2.7964975 1.116049,-4.1116693 0.735383,1.1989455 0.983419,1.9581962 2.833552,0.4390993 -0.551612,3.0816643 2.963878,1.1188412 4.831289,0.6919758 -0.84182,0.7999976 -1.941477,1.8642764 -2.161195,3.1741072 -0.07327,0.436841 0.325906,1.038546 0.751969,1.48841 -0.516559,0.1224243 -2.269212,0.4853923 -2.123184,1.4862373 0.146031,1.000845 0.653922,0.693778 0.18036,0.883676 -0.678409,0.15098 -1.158451,0.307838 -2.158111,-0.153172 l 1.014117,1.208811 c 1.537229,0.873133 4.0251,0.473635 4.569782,-0.799478 -0.804902,-0.08077 -1.475562,-0.288872 -1.790898,-0.688601 2.406704,-0.450583 3.668621,-2.2185413 4.731998,-4.2703596 -1.848267,1.0699583 -2.310637,0.9977323 -3.064337,0.9031833 1.947151,-0.804121 2.635799,-6.253377 2.219451,-8.35040807 z"
           id="path13795"
           style="fill:#ffffff" />
      </g>
    </g>
  </g>
</svg>
